<svg xmlns="http://www.w3.org/2000/svg" viewBox="0 0 550.28 216.97"><defs><style>.cls-1{fill:#180f2a;}</style></defs><g id="Layer_2" data-name="Layer 2"><g id="Layer_1-2" data-name="Layer 1"><path class="cls-1" d="M198.8,105.23A36.4,36.4,0,0,0,180,73.37a38.4,38.4,0,0,0,.28-4.57A36.44,36.44,0,0,0,135.7,33.3a36.44,36.44,0,0,0-72.61,0A36.42,36.42,0,0,0,18.77,73.37,36.44,36.44,0,0,0,20,137.76a36.41,36.41,0,0,0,43.09,45.91,36.44,36.44,0,0,0,72.61,0,36.41,36.41,0,0,0,43.1-45.9A36.47,36.47,0,0,0,198.8,105.23ZM141,111.06a3.9,3.9,0,0,1-3.9,3.92,30.77,30.77,0,0,0-11.17,2c-12.71,4.77-20.86,17.29-20.85,30.88h0a2.23,2.23,0,0,1-2.22,2.21H95.92a2.19,2.19,0,0,1-2.2-2.2h0c0-13.57-8.12-26.1-20.83-30.88a30.76,30.76,0,0,0-11.18-2,3.9,3.9,0,0,1-3.9-3.92v-3.92a3.91,3.91,0,0,1,3.87-3.92h.23c12.42,0,26.28-9.8,30.15-21.6a32.09,32.09,0,0,0,1.66-10.78,3.88,3.88,0,0,1,3.91-3.94h3.54a3.9,3.9,0,0,1,3.92,3.94,31.91,31.91,0,0,0,1.65,10.79c3.87,11.8,17.73,21.62,30.15,21.59h.24a3.91,3.91,0,0,1,3.87,3.92Z"/><path class="cls-1" d="M225.92,103.25V28.45h13l35.1,53v-53h12.89v74.8H274l-35.2-53v53Z"/><path class="cls-1" d="M348.4,52.7v50.55H336.84l-.92-6.75c-3.07,4.81-9.62,8.08-16.37,8.08-11.67,0-18.53-7.87-18.53-20.26V52.7h12.49V79.92c0,9.62,3.79,13.51,10.74,13.51,7.88,0,11.67-4.6,11.67-14.22V52.7Z"/><path class="cls-1" d="M382.57,51.17c13.82,0,23.23,7.67,24.56,19.85H394.65c-1.43-5.73-5.63-8.7-11.56-8.7-8,0-13.31,6-13.31,15.56s4.92,15.45,12.9,15.45c6.24,0,10.64-3.07,12-8.6h12.59c-1.54,11.77-11.36,19.85-24.56,19.85-15.35,0-25.38-10.64-25.38-26.7C357.3,62.22,367.63,51.17,382.57,51.17Z"/><path class="cls-1" d="M416.75,103.25V27.12h12.38v76.13Z"/><path class="cls-1" d="M439.26,78c0-15.86,10.33-26.81,25.17-26.81,15.14,0,24.76,10.13,24.76,25.89v3.78L451.13,81c.92,8.9,5.63,13.4,13.91,13.4,6.86,0,11.36-2.66,12.79-7.47H489.4c-2.15,11.05-11.36,17.7-24.56,17.7C449.8,104.58,439.26,93.64,439.26,78Zm12.17-5h25.38c0-6.95-4.81-11.56-12.28-11.56S452.66,65.39,451.43,73Z"/><path class="cls-1" d="M523.26,51.27c15.66,0,27,10.85,27,26.61s-11.36,26.6-27,26.6-27-10.84-27-26.6S507.61,51.27,523.26,51.27Zm0,42.06c8.6,0,14.53-6.24,14.53-15.45s-5.93-15.45-14.53-15.45-14.53,6.24-14.53,15.45S514.67,93.33,523.26,93.33Z"/><path class="cls-1" d="M225.92,188.52v-74.8h12.69l24.15,59.55,24.15-59.55H299.8v74.8H287.12v-23c0-15,0-19.45.71-24.77l-19,47.79H256.72l-18.93-47.68c.72,4.5.82,11.56.82,20.87v26.81Z"/><path class="cls-1" d="M313.1,120.27a7.57,7.57,0,1,1,7.67,7.57A7.57,7.57,0,0,1,313.1,120.27Zm1.43,17.7H327v50.55H314.53Z"/><path class="cls-1" d="M339.9,188.52V138h11.57l1,6.55c3.17-5.12,9.31-8.08,16.17-8.08,12.69,0,19.24,7.88,19.24,21v31.11H375.41V160.38c0-8.49-4.19-12.59-10.64-12.59-7.67,0-12.38,5.33-12.38,13.51v27.22Z"/><path class="cls-1" d="M397.2,163.45c0-15.76,9.21-27,24.46-27,7.06,0,13.3,3,16.47,8v-32h12.39v76.13H439.05l-.82-7.88c-3.06,5.83-9.61,9.21-17.29,9.21C406.31,189.85,397.2,179.11,397.2,163.45ZM438,163c0-9.11-5.63-15.45-14.33-15.45s-14,6.45-14,15.45,5.32,15.35,14,15.35S438,172.15,438,163Z"/></g></g></svg>