<svg xmlns="http://www.w3.org/2000/svg" viewBox="0 0 198.8 216.97"><defs><style>.cls-1{fill:#d19fff;}</style></defs><g id="Layer_2" data-name="Layer 2"><g id="Layer_1-2" data-name="Layer 1"><path class="cls-1" d="M198.8,105.23A36.4,36.4,0,0,0,180,73.37a38.4,38.4,0,0,0,.28-4.57A36.44,36.44,0,0,0,135.7,33.3a36.44,36.44,0,0,0-72.61,0A36.42,36.42,0,0,0,18.77,73.37,36.44,36.44,0,0,0,20,137.76a36.41,36.41,0,0,0,43.09,45.91,36.44,36.44,0,0,0,72.61,0,36.41,36.41,0,0,0,43.1-45.9A36.47,36.47,0,0,0,198.8,105.23ZM141,111.06a3.9,3.9,0,0,1-3.9,3.92,30.77,30.77,0,0,0-11.17,2c-12.71,4.77-20.86,17.29-20.85,30.88h0a2.23,2.23,0,0,1-2.22,2.21H95.92a2.19,2.19,0,0,1-2.2-2.2h0c0-13.57-8.12-26.1-20.83-30.88a30.76,30.76,0,0,0-11.18-2,3.9,3.9,0,0,1-3.9-3.92v-3.92a3.91,3.91,0,0,1,3.87-3.92h.23c12.42,0,26.28-9.8,30.15-21.6a32.09,32.09,0,0,0,1.66-10.78,3.88,3.88,0,0,1,3.91-3.94h3.54a3.9,3.9,0,0,1,3.92,3.94,31.91,31.91,0,0,0,1.65,10.79c3.87,11.8,17.73,21.62,30.15,21.59h.24a3.91,3.91,0,0,1,3.87,3.92Z"/></g></g></svg>