<svg xmlns="http://www.w3.org/2000/svg" viewBox="0 0 699.98 149.82"><defs><style>.cls-1,.cls-2{fill:#fff;}.cls-2{stroke:#fff;stroke-miterlimit:10;stroke-width:3px;}.cls-3{fill:#fefdff;}</style></defs><g id="Layer_2" data-name="Layer 2"><g id="Layer_1-2" data-name="Layer 1"><path class="cls-1" d="M67,143.3c0,1.06-1.07,1.87-2.15,2.37a102.86,102.86,0,0,1-9.63,3.71c-3,1-4.72.26-5.82-2.79-1-2.8-.17-5,2.52-6.13s5.41-2.18,8-3.23C64.42,135.35,67.05,137.94,67,143.3Z"/><path class="cls-1" d="M78.24,43.92c-4.52-1-13-2.94-13.83-3.2.64-2.52,1.45-5.38,2-8.3A14.46,14.46,0,0,1,62.81,34a15.1,15.1,0,0,1-4,.23C58.46,27,60.44,21.3,65.91,17a6.69,6.69,0,0,1,1.87-1.06c1.63-5,4.67-11.28,9.16-14.23C80.75-.9,81-.65,83.23,3.34s2.24,8.43,2.12,12.79a34.79,34.79,0,0,1-.19,3.53c0,.3,0,1.07-.2,2,.73.63,2.37,1.45,2.66,3.86A32.26,32.26,0,0,1,86,39.73c-2.5-1.87-5-3.95-7.72-6.17C78.23,37.24,78.24,40.36,78.24,43.92Zm-4.17-12.4c.26-2,1-7.47,1.06-8.08a3.52,3.52,0,0,0,1.58-.26C80.65,21.24,81.25,16.94,78,14a5.69,5.69,0,0,0-1.42-1c.44-1.26,1.29-4.09,1.57-5.31a14.34,14.34,0,0,0,.38-4.45c0-.09-.09-.14-.16-.08a25.49,25.49,0,0,0-4.54,5c-4,5.8-5.43,10.72-5.56,17.85l.09,3.47A12.7,12.7,0,0,1,74.07,31.52ZM61,32.53a6.09,6.09,0,0,0,2.62-.71c0-2.42,0-5.14,2.37-12.12C63.09,22.48,61,26.43,61,32.53Z"/><path class="cls-1" d="M74.81,22.64a4,4,0,0,1-4.12-4.29A4.12,4.12,0,0,1,75,14.21a4.26,4.26,0,0,1,4.17,4.34A4.13,4.13,0,0,1,74.81,22.64Z"/><path class="cls-1" d="M63.94,42.45c4.74,1.13,9.45,2.2,14.35,3.37a46.79,46.79,0,0,1-2.1,10.54c-3.52,10.7-8.1,20.88-12.44,30.88a55.81,55.81,0,0,1-5.62,10.65,41.53,41.53,0,0,1-10.66,10.47A38.58,38.58,0,0,1,33.77,115c-5.24.92-8.77-2.34-8.86-6.6a70.87,70.87,0,0,0-.75-10.75A24.2,24.2,0,0,0,15.31,83C4.57,74.3-.72,63.33.08,49.42.75,37.74,5.49,27.73,13.08,19,20.52,10.46,29.65,4.59,41,3.12A48.69,48.69,0,0,1,67,6.78c-1.2,2.63-2.5,5.67-3.63,8.15-3-.61-6.1-1.66-9-2-18.41-2-32.83,5.8-40.7,23.07-5.93,12.88-4.1,24.89,4,36.61a53.54,53.54,0,0,0,5.44,5.64,42.76,42.76,0,0,1,10.69,18c1.31,4.66,4.26,5.64,8.49,3.68a15.06,15.06,0,0,0,7.59-7.21c2.91-5.34,6.58-11.42,10.82-30.57,1.19-5.75,2.19-11.21,3-17.38C63.77,44.24,63.87,43.26,63.94,42.45Z"/><path class="cls-1" d="M89.51,31.16a.3.3,0,0,1,.54-.14,27.79,27.79,0,0,1,4.68,10.57c2.82,13.55-.3,31.39-14.09,43.06-5.84,4.84-9.47,12.4-7.71,20.91a9.1,9.1,0,0,1-4.17,9.55,43,43,0,0,1-7.48,3.26q-14,5.34-27.95,10.55a11.74,11.74,0,0,1-2.93.77,4,4,0,0,1-4.53-3c-.7-2.64.1-4.28,2.6-5.26q15.33-6,30.67-12c3.59-1.41,4.61-2.88,4.48-6.78-.23-6.4.89-12.49,4.6-17.83a24.61,24.61,0,0,1,5-5.24c7.86-6.19,12-14.44,13.5-24.13C87.86,46,88.3,40.32,89.51,31.16Z"/><path class="cls-1" d="M38.93,141.59a3.83,3.83,0,0,1-4.13-3.4c-.53-2.87.07-4.57,2.15-5.4,9.18-3.67,18.63-7.4,27.82-11,3.63-1.44,6.3,0,6.77,3.24.3,2.1-1.06,4.47-3.82,5.59-6.61,2.68-13.39,5.22-20,7.87-2,.79-3.92,1.62-5.91,2.35A28.27,28.27,0,0,1,38.93,141.59Z"/><path class="cls-1" d="M128.16,125.92a16,16,0,0,1-18.25,5.7,14.2,14.2,0,0,1-10-13.82c0-7.83,4.26-13.59,11.1-15.81,6.29-2,13.62.75,15.73,4.46l-4.21,6c-2.21-2.46-3.72-3.33-7.16-3.33a6.36,6.36,0,0,0-5.08,2.56c-2.68,3.26-2,8.65.85,11.33,3.32,2.77,8.31,2.05,12.28-2.24Z"/><path class="cls-1" d="M174.24,101.22s0,7,0,10.36a8.62,8.62,0,0,1,5.11-1.75c6.57,0,10.37,4.94,10.1,10.68-.15,3.15-.44,4.88-1.73,7-2.56,4.12-7.47,5.44-12.15,3.92a16.44,16.44,0,0,1-1.76-1v1.42h-7.05V102.25Zm7.75,19.5c0-3-1.55-4.58-4.11-4.61s-4.1,2-4.08,5.13,1.57,4.76,4.06,4.72C180.52,125.92,182,123.9,182,120.72Z"/><path class="cls-1" d="M155.51,130c-1.81,1.09-3.47,2.34-6.61,2.21a7.52,7.52,0,0,1-7.09-7.19c0-4.59,0-14.64,0-14.64h7.38v11.55c0,1.76,1.23,4.16,3.25,4.16s3-.9,3-3.06c.06-3.54,0-12.65,0-12.65h7.28s0,17.09,0,21.41h-7.21Z"/><polygon class="cls-1" points="130.57 102.06 137.72 101.22 137.72 131.72 130.57 131.72 130.57 102.06"/><path class="cls-1" d="M151,88.41a4.81,4.81,0,0,0,5,4.94h5.08V87.91a4.7,4.7,0,0,1-2-.26,1.63,1.63,0,0,1-.86-1.19c-.05-3.12,0-6.45,0-9.51h2.72c.14-1.41.17-3.43.3-4.79l-3,0V64.37c-2,.68-7.31,2.44-7.31,2.44v5.31l-2.15,0L148.29,77H151Z"/><path class="cls-1" d="M198.68,88.41a4.81,4.81,0,0,0,5,4.94h5.08V87.91a4.66,4.66,0,0,1-1.95-.26,1.6,1.6,0,0,1-.86-1.19c-.06-3.12,0-6.45,0-9.51h2.72c.13-1.41.17-3.43.3-4.79l-3,0V64.37c-2,.68-7.31,2.44-7.31,2.44l0,5.31-2.14,0L196,77h2.67Z"/><path class="cls-1" d="M251.57,85.45c1.48,2.67,4.85,2.44,6.72.34l.88-1.44,3.58,1.22,2.89,1c-2.44,5.33-7.05,7.73-13.46,6.68a10.33,10.33,0,0,1-8.74-11.06c.27-6.2,4-10.59,10.55-11,6-.42,11.1,3.34,11.84,10.08Zm6.72-6.65c-.54-2.3-2.41-2.87-4.33-2.42A4.37,4.37,0,0,0,250.75,81Z"/><path class="cls-1" d="M115.07,72h6.77l.14,1.65a7.93,7.93,0,0,1,5.26-2.13c4.89,0,8.13,3.08,8.13,7.59V93.19h-7.13s-.07-9.7-.07-12.38a3.63,3.63,0,0,0-3.86-3.57c-1.12,0-2,.57-2.1,2.93-.09,3.61,0,13,0,13h-7.12Z"/><path class="cls-1" d="M187.29,81.08c.33-3.08-1.64-4.58-10.46-3.91V72c4.47-.48,9-.72,13.4,1.27,3.05,1.37,4.11,3.9,4.18,6.8v13h-7.27v-1.5c-1.21,1.34-5.07,2.41-8,1.8-4.5-1.57-5.59-4.21-5.39-7.07.22-3.28,3.76-6.08,7.57-6.22A13.81,13.81,0,0,1,187.29,81.08Zm-3.14,8.06c1.74,0,3.14-.76,3.14-2.46,0-1.92-1.48-2.47-3.23-2.56A2.85,2.85,0,0,0,181,86.65C181,88.27,182.5,89,184.15,89.14Z"/><rect class="cls-1" x="102.03" y="63.7" width="8.77" height="29.34"/><rect class="cls-1" x="139.59" y="71.97" width="7.15" height="21.08"/><rect class="cls-1" x="139.59" y="64.87" width="7.15" height="5.22"/><rect class="cls-1" x="163.52" y="71.97" width="7.15" height="21.08"/><rect class="cls-1" x="163.52" y="64.87" width="7.15" height="5.22"/><rect class="cls-1" x="211.17" y="71.97" width="7.15" height="21.08"/><rect class="cls-1" x="211.17" y="64.87" width="7.15" height="5.22"/><polygon class="cls-1" points="243.19 71.97 231.32 94.17 219.5 71.97 227.5 71.97 231.3 79.91 235.08 71.97 243.19 71.97"/><path class="cls-1" d="M229.93,48.82a4.8,4.8,0,0,0,5,4.93H240V48.32a4.72,4.72,0,0,1-1.95-.27,1.62,1.62,0,0,1-.87-1.19c-.05-3.11,0-6.45,0-9.51h2.72c.14-1.4.17-3.42.3-4.79h-3V24.77c-2,.69-7.3,2.45-7.3,2.45l0,5.31-2.14,0-.49,4.8h2.68Z"/><path class="cls-1" d="M227.25,37.35c-.48.27-5.5,3.21-5.5,3.21s-.75-.8-1.22-1.33a4.08,4.08,0,0,0-5.71,0,5.84,5.84,0,0,0-.34,7.29,4.53,4.53,0,0,0,5.49.85,10.56,10.56,0,0,0,2.4-2.39c1.45.82,3.5,2.26,5,3.13C225,52.34,221,54.6,215.19,53.93a10.28,10.28,0,0,1-9.05-7.76c-1.22-6,1.06-10.35,5.59-12.94S224.18,31.39,227.25,37.35Z"/><path class="cls-1" d="M110.74,45.82V53.7h-8.85V24.16h14c6.6.44,12.57,2.48,12.57,10.85-.08,5.25-2.7,10-11.73,10.73C114,45.74,114.19,45.82,110.74,45.82ZM110.81,35v4.33l4.72,0c1,0,4.54-.57,4.54-4.3s-3.59-4.33-4.56-4.33h-4.7Z"/><path class="cls-1" d="M155.63,54.45c-7.14,0-11.69-4.39-11.69-11.22s4.82-11.51,11.89-11.41,11.77,4.71,11.73,11.62C167.51,50.09,162.78,54.47,155.63,54.45Zm.15-6.2c2.76,0,4.65-2.08,4.62-5.11a4.66,4.66,0,0,0-4.57-5c-3,0-4.74,1.82-4.7,5.11S152.84,48.26,155.78,48.25Z"/><path class="cls-1" d="M189.47,46.05c1.49,2.66,4.85,2.44,6.72.34l.88-1.44,3.59,1.22,2.88,1c-2.43,5.32-7,7.73-13.46,6.68a10.34,10.34,0,0,1-8.74-11.06c.27-6.2,4-10.59,10.56-11,6-.42,11.1,3.34,11.83,10.08Zm6.72-6.66c-.54-2.3-2.4-2.87-4.33-2.42a4.37,4.37,0,0,0-3.2,4.62Z"/><path class="cls-1" d="M137.59,34.54A6.21,6.21,0,0,1,143.28,32v6.26a12,12,0,0,0-2.59-.08,2.93,2.93,0,0,0-2.81,3.24c-.06,3.38,0,8.9,0,12.28H130.5l0-18.36V32.49h7.11Z"/><path class="cls-1" d="M166.9,61.35v-6c3.13-.16,3.88-1.16,4.08-5.24-.06-5.64,0-11.72,0-17.52h7.17V40.1c0,3.92,0,7.84,0,11.77C178.13,58.53,174.85,61.35,166.9,61.35Z"/><path class="cls-1" d="M169.21,24.31h10.33c-1.58,2.15-3.35,4.43-5.09,6.81C172.8,29,171,26.66,169.21,24.31Z"/><line class="cls-2" x1="292.95" x2="292.95" y2="149.82"/><path class="cls-3" d="M457.29,72.66a25.14,25.14,0,0,0-13-22A25.18,25.18,0,0,0,413.71,23a25.16,25.16,0,0,0-50.13,0A25.21,25.21,0,0,0,333,50.66a25.16,25.16,0,0,0,.85,44.46,25.16,25.16,0,0,0,29.76,31.71,25.16,25.16,0,0,0,50.13,0,25.15,25.15,0,0,0,30.74-22.61,24.86,24.86,0,0,0-1-9.09A25.17,25.17,0,0,0,457.29,72.66Zm-39.92,4a2.68,2.68,0,0,1-2.69,2.7A21.22,21.22,0,0,0,407,80.78a22.65,22.65,0,0,0-14.4,21.31h0a1.53,1.53,0,0,1-1.53,1.53h-4.79a1.52,1.52,0,0,1-1.52-1.51h0a22.67,22.67,0,0,0-14.38-21.33,21.28,21.28,0,0,0-7.73-1.39,2.68,2.68,0,0,1-2.69-2.7V74a2.7,2.7,0,0,1,2.67-2.7h.16c8.58,0,18.15-6.77,20.82-14.92a22,22,0,0,0,1.14-7.45,2.69,2.69,0,0,1,2.71-2.72h2.44a2.69,2.69,0,0,1,2.71,2.72,22,22,0,0,0,1.14,7.45c2.67,8.15,12.24,14.93,20.82,14.92h.16a2.69,2.69,0,0,1,2.67,2.7Z"/><path class="cls-3" d="M476,71.3V19.65h9l24.23,36.6V19.65h8.91V71.3h-8.91l-24.3-36.6V71.3Z"/><path class="cls-3" d="M560.59,36.39V71.3h-8L552,66.63c-2.12,3.32-6.64,5.59-11.3,5.59-8.06,0-12.79-5.45-12.79-14V36.39h8.62v18.8c0,6.64,2.62,9.32,7.42,9.32,5.44,0,8.05-3.18,8.05-9.82V36.39Z"/><path class="cls-3" d="M584.18,35.33c9.54,0,16,5.3,17,13.71h-8.62c-1-4-3.89-6-8-6-5.51,0-9.18,4.17-9.18,10.74s3.39,10.67,8.9,10.67c4.31,0,7.35-2.12,8.27-5.93h8.69c-1.06,8.12-7.84,13.71-17,13.71-10.6,0-17.52-7.35-17.52-18.45C566.73,43,573.86,35.33,584.18,35.33Z"/><path class="cls-3" d="M607.78,71.3V18.73h8.55V71.3Z"/><path class="cls-3" d="M623.32,53.84c0-11,7.14-18.51,17.38-18.51,10.46,0,17.1,7,17.1,17.88v2.61l-26.28.07c.63,6.15,3.88,9.26,9.6,9.26,4.74,0,7.85-1.84,8.84-5.16h8c-1.48,7.63-7.84,12.23-17,12.23C630.6,72.22,623.32,64.66,623.32,53.84Zm8.41-3.46h17.52c0-4.8-3.32-8-8.48-8S632.58,45.15,631.73,50.38Z"/><path class="cls-3" d="M681.33,35.4c10.81,0,18.65,7.49,18.65,18.37s-7.84,18.38-18.65,18.38-18.66-7.49-18.66-18.38S670.51,35.4,681.33,35.4Zm0,29c5.93,0,10-4.31,10-10.67s-4.1-10.67-10-10.67-10,4.32-10,10.67S675.39,64.44,681.33,64.44Z"/><path class="cls-3" d="M476,130.17V78.52h8.77l16.67,41.12,16.68-41.12H527v51.65h-8.76V114.28c0-10.39,0-13.43.49-17.1l-13.14,33h-8.34L484.21,97.25a108.5,108.5,0,0,1,.57,14.41v18.51Z"/><path class="cls-3" d="M536.21,83a5.23,5.23,0,1,1,5.3,5.23A5.23,5.23,0,0,1,536.21,83Zm1,12.23h8.62v34.9H537.2Z"/><path class="cls-3" d="M554.72,130.17V95.27h8l.71,4.52c2.19-3.53,6.43-5.58,11.16-5.58,8.76,0,13.29,5.44,13.29,14.48v21.48h-8.63V110.74c0-5.86-2.89-8.69-7.34-8.69-5.3,0-8.55,3.68-8.55,9.33v18.79Z"/><path class="cls-3" d="M594.28,112.86c0-10.88,6.36-18.65,16.89-18.65,4.87,0,9.18,2.05,11.37,5.51V77.6h8.55v52.57h-7.91l-.57-5.44c-2.12,4-6.64,6.36-11.94,6.36C600.57,131.09,594.28,123.67,594.28,112.86Zm28.19-.28c0-6.29-3.88-10.67-9.89-10.67s-9.68,4.45-9.68,10.67,3.68,10.6,9.68,10.6S622.47,118.87,622.47,112.58Z"/></g></g></svg>